<svg width="228" height="42" viewBox="0 0 228 42" fill="none" xmlns="http://www.w3.org/2000/svg">
<path d="M0 42V0H48.7977C55.0304 0 59.591 1.25 62.4793 3.75C65.4183 6.2 66.8878 9.45 66.8878 13.5C66.8878 17.6 65.4183 20.875 62.4793 23.325C59.591 25.775 55.0304 27 48.7977 27H48.1136L74.7928 42H60.047L34.204 27.075H8.96905V42H0ZM48.4177 7.65H8.96905V19.725H48.4177C51.9141 19.725 54.2957 19.2 55.5625 18.15C56.88 17.05 57.5387 15.55 57.5387 13.65C57.5387 11.8 56.88 10.35 55.5625 9.3C54.245 8.2 51.8634 7.65 48.4177 7.65Z" fill="white"/>
<path d="M84.0997 42V0H148.859V7.65H93.0687V17.625H142.171V24.375H93.0687V34.35H148.859V42H84.0997Z" fill="white"/>
<path d="M161.568 42V34.35H211.126C214.014 34.35 215.991 33.925 217.055 33.075C218.119 32.175 218.651 30.925 218.651 29.325C218.651 26.025 216.143 24.375 211.126 24.375H175.402C164.457 24.375 158.984 20.325 158.984 12.225C158.984 8.475 160.276 5.5 162.86 3.3C165.495 1.1 169.676 0 175.402 0H225.416V7.65H175.858C172.97 7.65 170.993 8.1 169.929 9C168.865 9.85 168.333 11.075 168.333 12.675C168.333 14.225 168.865 15.45 169.929 16.35C170.993 17.2 172.97 17.625 175.858 17.625H211.582C222.527 17.625 228 21.675 228 29.775C228 33.525 226.683 36.5 224.048 38.7C221.463 40.9 217.308 42 211.582 42H161.568Z" fill="white"/>
</svg>
